<svg width="10" height="14" viewBox="0 0 10 14" fill="none" xmlns="http://www.w3.org/2000/svg">
<g clip-path="url(#clip0_21_2857)">
<path fill-rule="evenodd" clip-rule="evenodd" d="M8.72211 11.5278C8.97258 11.7872 9.11117 12.1345 9.10804 12.495C9.10491 12.8555 8.9603 13.2004 8.70536 13.4553C8.45043 13.7103 8.10556 13.8549 7.74504 13.858C7.38452 13.8611 7.03719 13.7225 6.77786 13.4721L2.24999 8.9442C1.73444 8.4285 1.44482 7.72915 1.44482 6.99995C1.44482 6.27075 1.73444 5.5714 2.24999 5.0557L6.77786 0.527825C7.03719 0.277357 7.38452 0.138765 7.74504 0.141898C8.10556 0.145031 8.45043 0.289638 8.70536 0.544574C8.9603 0.79951 9.10491 1.14438 9.10804 1.5049C9.11117 1.86542 8.97258 2.21275 8.72211 2.47207L4.19424 6.99995L8.72211 11.5278Z" fill="#005FF9"/>
</g>
<defs>
<clipPath id="clip0_21_2857">
<rect width="8.25" height="13.75" fill="white" transform="translate(0.875 0.125)"/>
</clipPath>
</defs>
</svg>
