<svg width="25" height="25" viewBox="0 0 25 25" fill="none" xmlns="http://www.w3.org/2000/svg">
<path d="M4.57853 5.23661C4.18998 4.84806 4.18998 4.2181 4.57853 3.82955V3.82955C4.96708 3.44101 5.59704 3.44101 5.98558 3.82955L12.2068 10.0507C12.5953 10.4393 12.5953 11.0692 12.2068 11.4578V11.4578C11.8182 11.8463 11.1882 11.8463 10.7997 11.4578L4.57853 5.23661Z" fill="#005FF9"/>
<path d="M13.5429 14.2012C13.1543 13.8127 13.1543 13.1827 13.5429 12.7942V12.7942C13.9314 12.4056 14.5614 12.4056 14.9499 12.7942L21.1711 19.0153C21.5597 19.4039 21.5597 20.0338 21.1711 20.4224V20.4224C20.7826 20.8109 20.1526 20.8109 19.7641 20.4224L13.5429 14.2012Z" fill="#005FF9"/>
<path d="M14.9499 11.4572C14.5613 11.8457 13.9314 11.8457 13.5428 11.4572V11.4572C13.1543 11.0686 13.1543 10.4387 13.5428 10.0501L19.764 3.82895C20.1525 3.44041 20.7825 3.44041 21.171 3.82895V3.82895C21.5596 4.2175 21.5596 4.84746 21.171 5.23601L14.9499 11.4572Z" fill="#005FF9"/>
<path d="M5.98527 20.3518C5.59672 20.7403 4.96676 20.7403 4.57821 20.3518V20.3518C4.18966 19.9632 4.18966 19.3333 4.57821 18.9447L10.7994 12.7235C11.1879 12.335 11.8179 12.335 12.2064 12.7235V12.7235C12.595 13.1121 12.595 13.7421 12.2064 14.1306L5.98527 20.3518Z" fill="#005FF9"/>
</svg>
