<svg width="85" height="26" viewBox="0 0 85 26" fill="none" xmlns="http://www.w3.org/2000/svg">
<g opacity="0.2">
<path d="M47.5402 12.3861C48.4578 12.3861 49.2557 12.2062 49.934 11.8387C50.6122 11.4712 51.1309 10.9551 51.49 10.2748C51.849 9.5945 52.0325 8.78909 52.0325 7.85857V0.218938H50.8197L50.5245 1.36058C49.6627 0.461343 48.5695 0.0078125 47.245 0.0078125C46.0002 0.0078125 44.955 0.430064 44.0932 1.28239C43.2315 2.12689 42.8086 3.16688 42.8086 4.39454C42.8086 5.6222 43.2395 6.65437 44.0932 7.49888C44.955 8.34338 46.0002 8.76563 47.245 8.76563C48.394 8.76563 49.3915 8.42157 50.2213 7.72564V8.11661C50.2213 8.94548 49.9739 9.59449 49.4712 10.0715C48.9685 10.5485 48.3222 10.7909 47.5243 10.7909C46.9498 10.7909 46.4231 10.6579 45.9523 10.3999C45.4816 10.1419 45.1624 9.76652 44.9949 9.28954V9.24262H43.1516V22.6452H44.9949V11.7683C45.705 12.1827 46.5588 12.3861 47.5402 12.3861ZM50.0138 5.45799C49.8782 5.79423 49.6866 6.08355 49.4392 6.31031C49.1919 6.5449 48.9047 6.72475 48.5616 6.8655C48.2185 6.99843 47.8514 7.0688 47.4604 7.0688C46.6625 7.0688 46.0002 6.81076 45.4736 6.30249C44.947 5.79423 44.6837 5.15303 44.6837 4.3789C44.6837 3.60477 44.947 2.96358 45.4736 2.44749C46.0002 1.9314 46.6625 1.67336 47.4604 1.67336C48.2583 1.67336 48.9206 1.9314 49.4392 2.43967C49.9579 2.94794 50.2213 3.59695 50.2213 4.3789C50.2213 4.76206 50.1495 5.12175 50.0138 5.45799Z" fill="#181940"/>
<path d="M62.1104 9.01586H63.6105V0.211126H62.1823L61.9668 1.30585C61.1051 0.437891 60.0119 0 58.6874 0C57.3469 0 56.2297 0.437891 55.3361 1.31367C54.4424 2.18945 53.9956 3.28418 53.9956 4.60567C53.9956 5.92716 54.4424 7.02189 55.3361 7.90549C56.2297 8.78909 57.3469 9.22698 58.6874 9.22698C59.988 9.22698 61.0651 8.79691 61.9269 7.93677L62.1104 9.01586ZM60.9135 6.67783C60.3629 7.2252 59.6687 7.49888 58.815 7.49888C57.9692 7.49888 57.2591 7.2252 56.7006 6.67783C56.142 6.13047 55.8627 5.44236 55.8627 4.61349C55.8627 4.07395 55.9904 3.58132 56.2457 3.13561C56.501 2.69772 56.8522 2.35366 57.299 2.10344C57.7458 1.85322 58.2485 1.7281 58.8071 1.7281C59.6609 1.7281 60.3629 2.00179 60.9135 2.54133C61.4641 3.08087 61.7354 3.76899 61.7354 4.60567C61.7434 5.43454 61.4641 6.13047 60.9135 6.67783Z" fill="#181940"/>
<path d="M70.185 9.22698C71.1824 9.22698 72.0681 8.96112 72.8421 8.43722C73.6161 7.91331 74.1826 7.17828 74.5417 6.24776H72.5947C72.4351 6.52145 72.2437 6.74821 72.0043 6.93588C71.7649 7.12354 71.4936 7.27212 71.1824 7.37377C70.8712 7.47542 70.5361 7.53016 70.185 7.53016C69.4509 7.53016 68.8446 7.32685 68.3498 6.91242C67.8551 6.49799 67.5519 5.9428 67.4402 5.23123H74.7252C74.7491 4.99665 74.7572 4.79334 74.7572 4.62913C74.7572 3.78463 74.5656 3.0105 74.1906 2.30675C73.8155 1.60299 73.2729 1.04781 72.5788 0.625558C71.8766 0.211125 71.0787 0 70.185 0C68.8684 0 67.7674 0.437891 66.8817 1.32149C66.004 2.20509 65.5571 3.29982 65.5571 4.61349C65.5571 5.92717 65.996 7.02189 66.8817 7.90549C67.7674 8.78909 68.8684 9.22698 70.185 9.22698ZM68.4296 2.20509C68.9084 1.82194 69.4988 1.63427 70.185 1.63427C70.6398 1.63427 71.0548 1.72029 71.4218 1.88449C71.7968 2.05652 72.1081 2.29893 72.3634 2.61953C72.6187 2.94012 72.8022 3.32328 72.9139 3.76899H67.4801C67.6317 3.10433 67.9509 2.58043 68.4296 2.20509Z" fill="#181940"/>
<path d="M82.6085 0.210938L79.9593 6.74802L77.2704 0.210938H75.3235L79.1136 9.01567H80.8132L84.4995 0.210938H82.6085Z" fill="#181940"/>
<path d="M38.9944 1.12601C38.1645 0.383155 37.1432 0.00781891 35.9144 0.00781891C34.5739 0.00781891 33.4569 0.445711 32.5632 1.32149C31.6695 2.19727 31.2227 3.292 31.2227 4.61349C31.2227 5.93498 31.6695 7.02971 32.5632 7.91331C33.4569 8.79691 34.5739 9.2348 35.9144 9.2348C37.1273 9.2348 38.1566 8.85165 38.9944 8.10098V14.6537C38.1645 13.9656 37.1752 13.6294 36.0341 13.6294C34.6856 13.6294 33.5685 14.0672 32.6828 14.943C31.8051 15.8188 31.3583 16.9214 31.3583 18.2428C31.3583 19.5722 31.7971 20.6669 32.6828 21.5427C33.5605 22.4184 34.6777 22.8563 36.0341 22.8563C37.2869 22.8563 38.3481 22.4575 39.2098 21.6521L39.4413 22.6452H40.8376V9.01586V0.211126V0H38.9944V1.12601ZM38.1566 6.67783C37.6061 7.2252 36.9119 7.49888 36.0581 7.49888C35.2123 7.49888 34.5021 7.2252 33.9436 6.67783C33.385 6.13047 33.1057 5.44236 33.1057 4.61349C33.1057 4.07395 33.2334 3.58132 33.4887 3.13561C33.7441 2.69772 34.0952 2.35366 34.542 2.10344C34.9889 1.85322 35.4916 1.7281 36.0501 1.7281C36.9039 1.7281 37.6061 2.00179 38.1566 2.54133C38.7072 3.08087 38.9784 3.76899 38.9784 4.60567C38.9784 5.43454 38.7072 6.13047 38.1566 6.67783ZM38.2922 20.2915C37.7337 20.8389 37.0315 21.1126 36.1857 21.1126C35.3399 21.1126 34.6457 20.8389 34.0872 20.2915C33.5286 19.7442 33.2574 19.0561 33.2574 18.2272C33.2574 17.6877 33.385 17.195 33.6324 16.7493C33.8797 16.3114 34.2308 15.9674 34.6776 15.7172C35.1244 15.4669 35.6271 15.3418 36.1857 15.3418C36.7362 15.3418 37.239 15.4669 37.6938 15.7172C38.1406 15.9674 38.4917 16.3114 38.7471 16.7493C39.0024 17.1872 39.1301 17.6798 39.1301 18.2272C39.1301 19.0561 38.8507 19.7364 38.2922 20.2915Z" fill="#181940"/>
<path d="M54.8573 14.967C53.9955 14.0678 52.9024 13.6143 51.5778 13.6143C50.3331 13.6143 49.2878 14.0365 48.4261 14.8888C47.5643 15.7333 47.1414 16.7733 47.1414 18.001C47.1414 19.2286 47.5723 20.2608 48.4261 21.1053C49.2878 21.9498 50.3331 22.3643 51.5778 22.3643C52.7268 22.3643 53.7242 22.0202 54.5541 21.3243V21.7152C54.5541 22.5441 54.3067 23.1931 53.8041 23.6701C53.3014 24.1471 52.655 24.3895 51.8571 24.3895C51.2826 24.3895 50.756 24.2566 50.2852 23.9985C49.8144 23.7405 49.4953 23.3652 49.3277 22.8882H47.4845C47.7159 23.8656 48.2186 24.6319 49.0006 25.1793C49.7746 25.7266 50.732 26.0003 51.881 26.0003C52.7987 26.0003 53.5966 25.8205 54.2748 25.453C54.953 25.0854 55.4716 24.5694 55.8307 23.8891C56.1898 23.2088 56.3733 22.4034 56.3733 21.4728V13.8332H55.1605L54.8573 14.967ZM54.3466 19.0723C54.2109 19.4085 54.0195 19.6978 53.7721 19.9246C53.5248 20.1592 53.2375 20.339 52.8944 20.4798C52.5513 20.6127 52.1843 20.6831 51.7933 20.6831C50.9954 20.6831 50.3331 20.425 49.8065 19.9168C49.2798 19.4085 49.0165 18.7673 49.0165 17.9932C49.0165 17.219 49.2798 16.5778 49.8065 16.0618C50.3331 15.5457 50.9954 15.2876 51.7933 15.2876C52.5912 15.2876 53.2535 15.5457 53.7721 16.0539C54.2908 16.5622 54.5541 17.2112 54.5541 17.9932C54.5541 18.3763 54.4902 18.736 54.3466 19.0723Z" fill="#181940"/>
<path d="M66.2275 20.5581C65.9403 20.2766 65.7966 19.87 65.7966 19.3539V15.4364H68.35V15.3738H68.4378V13.8256H68.35H65.7727V11.769H65.4535L63.4827 13.8256H60.6341H59.7085H58.783V22.6225H60.6261V15.4286H63.9375V19.4947C63.9375 20.1359 64.0651 20.6911 64.3205 21.1681C64.5758 21.6372 64.9428 22.0047 65.4136 22.255C65.8924 22.5052 66.4589 22.6303 67.1132 22.6303H68.4777V20.9882H67.4643C66.9297 20.9804 66.5148 20.8396 66.2275 20.5581Z" fill="#181940"/>
<path d="M77.4854 14.9201C76.6236 14.0522 75.5305 13.6143 74.2059 13.6143C72.8654 13.6143 71.7484 14.0521 70.8547 14.9279C69.961 15.8037 69.5142 16.8984 69.5142 18.2199C69.5142 19.5414 69.961 20.6362 70.8547 21.5198C71.7484 22.4034 72.8654 22.8412 74.2059 22.8412C75.5065 22.8412 76.5838 22.4112 77.4455 21.551L77.629 22.6301H79.1291V13.8254H77.7008L77.4854 14.9201ZM76.4481 20.2921C75.8976 20.8395 75.2034 21.1131 74.3496 21.1131C73.5038 21.1131 72.7936 20.8395 72.2351 20.2921C71.6765 19.7447 71.3972 19.0566 71.3972 18.2278C71.3972 17.6882 71.5249 17.1956 71.7802 16.7499C72.0356 16.312 72.3867 15.9679 72.8335 15.7177C73.2804 15.4675 73.7831 15.3424 74.3416 15.3424C75.1954 15.3424 75.8976 15.616 76.4481 16.1556C76.9987 16.703 77.2699 17.3832 77.2699 18.2199C77.2699 19.0566 76.9907 19.7369 76.4481 20.2921Z" fill="#181940"/>
<path d="M83.5981 10.666H81.7549V22.622H83.5981V10.666Z" fill="#181940"/>
<path d="M3.22362 3.28457C2.14643 4.34802 1.34051 5.53658 0.805906 6.86589C0.2713 8.18738 0 9.65745 0 11.2761C0 12.9104 0.2713 14.3882 0.805906 15.7254C1.34051 17.0625 2.14643 18.2589 3.22362 19.3301C4.30081 20.4014 5.51359 21.199 6.85409 21.7307C8.07491 22.2077 9.40746 22.4736 10.8756 22.5205C10.4128 22.2155 9.98196 21.8637 9.57502 21.4649C8.7771 20.6751 8.17068 19.7759 7.77172 18.775C7.37276 17.7741 7.17328 16.6793 7.17328 15.5064C7.17328 14.3413 7.37276 13.2544 7.77172 12.2613C8.17068 11.2683 8.7771 10.369 9.57502 9.58707C10.3729 8.80512 11.2826 8.20302 12.296 7.80423C13.3093 7.40544 14.4184 7.20995 15.6073 7.20995C16.6207 7.20995 17.7457 7.20995 18.8229 7.20995V0.109863C16.3812 0.109863 13.6125 0.109863 11.3384 0.109863C9.6867 0.109863 8.19459 0.375726 6.84611 0.90745C5.5056 1.43136 4.30081 2.22112 3.22362 3.28457Z" fill="#181940"/>
<path d="M19.5094 8.53144C18.2247 8.53144 16.8443 8.53144 15.6156 8.53144C14.5703 8.53144 13.6447 8.70347 12.8069 9.03189C11.969 9.36031 11.2189 9.85293 10.5407 10.5176C9.86247 11.1822 9.36785 11.9251 9.03272 12.7461C8.6976 13.5672 8.53003 14.4821 8.53003 15.5064C8.53003 16.5386 8.6976 17.4613 9.03272 18.2902C9.36785 19.119 9.86247 19.8619 10.5407 20.5343C11.2189 21.2068 11.969 21.6994 12.8069 22.0279C13.6447 22.3563 14.5783 22.5283 15.6156 22.5283H19.5094H23.9138V8.26558V7.89025V0.109863C23.0521 0.109863 21.7276 0.109863 20.1876 0.109863V8.53144H19.5094Z" fill="#181940"/>
</g>
</svg>
